<svg xmlns="http://www.w3.org/2000/svg"  viewBox="0 0 100 100" width="100px" height="100px"><path fill="#c7ede6" d="M87.2,56.7c1.1-2.2,1.8-4.6,1.8-7.2c0-6.6-4.2-12.3-10-14.5c0,0,0,0,0,0c0-11.6-9.4-21-21-21 c-9.8,0-18,6.7-20.3,15.8c-1.5-0.5-3-0.8-4.7-0.8c-7.7,0-14,5.8-14.9,13.3C12.9,43.4,9,48,9,53.5C9,59.9,14.1,65,20.5,65 c0.2,0,0.4,0,0.5,0c0,0.2,0,0.3,0,0.5C21,76.8,30.2,86,41.5,86c6.4,0,12.2-3,15.9-7.6c2.2,2.2,5.2,3.6,8.6,3.6 c4.7,0,8.7-2.7,10.7-6.5c1.1,0.3,2.2,0.5,3.3,0.5c6.1,0,11-4.9,11-11C91,61.7,89.5,58.7,87.2,56.7z"/><path fill="#fdfcef" d="M79.9,60.5c0,0,3.6,0,6.1,0s4.5-2,4.5-4.5c0-2.3-1.8-4.2-4.1-4.5c0-0.2,0.1-0.4,0.1-0.5c0-2.5-2-4.5-4.5-4.5 c-1.4,0-2.7,0.7-3.5,1.7c-0.1-2.6-2.3-4.7-5-4.7c-2.8,0-5,2.2-5,5c0,0.4,0.1,0.9,0.2,1.3C68,49,67.1,48.5,66,48.5 c-1.8,0-3.2,1.3-3.5,3.1c-0.2,0-0.4-0.1-0.5-0.1c-2.5,0-4.5,2-4.5,4.5s2,4.5,4.5,4.5s9.5,0,9.5,0h5.4V61h3V60.5z"/><path fill="#472b29" d="M73.5,43c-3,0-5.5,2.5-5.5,5.5c0,0,0,0,0,0c-0.6-0.4-1.3-0.5-2-0.5c-1.8,0-3.4,1.3-3.9,3c0,0-0.1,0-0.1,0 c-2.8,0-5,2.2-5,5s2.2,5,5,5h14.9c0.3,0,0.5-0.2,0.5-0.5S77.2,60,76.9,60H62c-2.2,0-4-1.8-4-4s1.8-4,4-4c0.1,0,0.2,0,0.3,0l0.1,0 c0,0,0,0,0.1,0c0.2,0,0.5-0.2,0.5-0.4c0.2-1.5,1.5-2.6,3-2.6c0.9,0,1.7,0.4,2.3,1.1c0.1,0.1,0.2,0.2,0.4,0.2c0.1,0,0.2,0,0.2-0.1 c0.2-0.1,0.3-0.3,0.3-0.6c-0.1-0.4-0.2-0.8-0.2-1.2c0-2.5,2-4.5,4.5-4.5c2.4,0,4.3,1.9,4.5,4.3c0,0.2,0.2,0.4,0.3,0.5 c0.1,0,0.1,0,0.2,0c0.2,0,0.3-0.1,0.4-0.2c0.8-1,1.9-1.5,3.1-1.5c2.2,0,4,1.8,4,4c0,0.1,0,0.2,0,0.3l0,0.1c0,0.1,0,0.3,0.1,0.4 s0.2,0.2,0.3,0.2c2.1,0.2,3.6,1.9,3.6,4c0,2.2-1.8,4-4,4h-6.1c-0.3,0-0.5,0.2-0.5,0.5s0.2,0.5,0.5,0.5H86c2.8,0,5-2.2,5-5 c0-2.4-1.7-4.4-4-4.9c0,0,0-0.1,0-0.1c0-2.8-2.2-5-5-5c-1.2,0-2.3,0.4-3.2,1.2C78.2,44.8,76.1,43,73.5,43L73.5,43z"/><path fill="#472b29" d="M72 50c-1.4 0-2.6 1-2.9 2.3-.4-.2-.8-.3-1.2-.3-1.2 0-2.2.9-2.4 2.1-.2 0-.4-.1-.6-.1-1.5 0-2.8 1.2-2.9 2.7 0 .1.1.3.2.3 0 0 0 0 0 0 .1 0 .2-.1.2-.2.1-1.3 1.2-2.3 2.4-2.3.2 0 .5 0 .7.1 0 0 0 0 .1 0 .1 0 .1 0 .2-.1.1 0 .1-.1.1-.2 0-1 .8-1.9 1.9-1.9.4 0 .9.2 1.2.5 0 0 .1.1.2.1 0 0 .1 0 .1 0 .1 0 .1-.1.2-.2.1-1.3 1.2-2.3 2.5-2.3.2 0 .4 0 .7.1 0 0 0 0 .1 0 .1 0 .2-.1.2-.2 0-.1 0-.3-.2-.3C72.5 50 72.3 50 72 50L72 50zM85.9 51.5c-1.3 0-2.5.9-2.9 2.2 0 .1 0 .3.2.3 0 0 0 0 .1 0 .1 0 .2-.1.2-.2.3-1.1 1.3-1.8 2.4-1.8.1 0 .2 0 .3 0 0 0 0 0 0 0 .1 0 .2-.1.2-.2 0-.1-.1-.3-.2-.3C86.2 51.5 86 51.5 85.9 51.5L85.9 51.5z"/><path fill="#fff" d="M15.4 51H5.5C5.2 51 5 50.8 5 50.5S5.2 50 5.5 50h9.9c.3 0 .5.2.5.5S15.7 51 15.4 51zM18.5 51h-1c-.3 0-.5-.2-.5-.5s.2-.5.5-.5h1c.3 0 .5.2.5.5S18.8 51 18.5 51zM23.5 53h-9c-.3 0-.5-.2-.5-.5s.2-.5.5-.5h9c.3 0 .5.2.5.5S23.8 53 23.5 53zM12.5 53h-1c-.3 0-.5-.2-.5-.5s.2-.5.5-.5h1c.3 0 .5.2.5.5S12.8 53 12.5 53zM9.5 53h-2C7.2 53 7 52.8 7 52.5S7.2 52 7.5 52h2c.3 0 .5.2.5.5S9.8 53 9.5 53zM15.5 55h-2c-.3 0-.5-.2-.5-.5s.2-.5.5-.5h2c.3 0 .5.2.5.5S15.8 55 15.5 55zM18.5 46c-.2 0-.8 0-1 0-.3 0-.5.2-.5.5s.2.5.5.5c.2 0 .8 0 1 0 .3 0 .5-.2.5-.5S18.8 46 18.5 46zM18.5 48c-.2 0-4.8 0-5 0-.3 0-.5.2-.5.5s.2.5.5.5c.2 0 4.8 0 5 0 .3 0 .5-.2.5-.5S18.8 48 18.5 48zM23.5 50c-.2 0-2.8 0-3 0-.3 0-.5.2-.5.5s.2.5.5.5c.2 0 2.8 0 3 0 .3 0 .5-.2.5-.5S23.8 50 23.5 50z"/><g><path fill="#fff" d="M72.5 24h-10c-.3 0-.5-.2-.5-.5s.2-.5.5-.5h10c.3 0 .5.2.5.5S72.8 24 72.5 24zM76.5 24h-2c-.3 0-.5-.2-.5-.5s.2-.5.5-.5h2c.3 0 .5.2.5.5S76.8 24 76.5 24zM81.5 26h-10c-.3 0-.5-.2-.5-.5s.2-.5.5-.5h10c.3 0 .5.2.5.5S81.8 26 81.5 26zM69.5 26h-1c-.3 0-.5-.2-.5-.5s.2-.5.5-.5h1c.3 0 .5.2.5.5S69.8 26 69.5 26zM66.4 26h-1.9c-.3 0-.5-.2-.5-.5s.2-.5.5-.5h1.9c.3 0 .5.2.5.5S66.7 26 66.4 26zM75.5 22h-5c-.3 0-.5-.2-.5-.5s.2-.5.5-.5h5c.3 0 .5.2.5.5S75.8 22 75.5 22zM72.5 28h-2c-.3 0-.5-.2-.5-.5s.2-.5.5-.5h2c.3 0 .5.2.5.5S72.8 28 72.5 28z"/></g><g><path fill="#78a2d2" d="M37,71.3c-4,0-7.3-3.3-7.3-7.3V36c0-4,3.3-7.3,7.3-7.3h28c4,0,7.3,3.3,7.3,7.3v28c0,4-3.3,7.3-7.3,7.3H37z"/><path fill="#472b29" d="M65,29.4c3.6,0,6.6,3,6.6,6.6v28c0,3.6-3,6.6-6.6,6.6H37c-3.6,0-6.6-3-6.6-6.6V36c0-3.6,3-6.6,6.6-6.6H65 M65,28H37c-4.4,0-8,3.6-8,8v28c0,4.4,3.6,8,8,8h28c4.4,0,8-3.6,8-8V36C73,31.6,69.4,28,65,28L65,28z"/></g><g><path fill="#472b29" d="M68.4,47.5c-0.3,0-0.5-0.2-0.5-0.5v-3.7c0-0.3,0.2-0.5,0.5-0.5s0.5,0.2,0.5,0.5V47 C68.9,47.3,68.7,47.5,68.4,47.5z"/></g><g><path fill="#472b29" d="M68.5,41.1c-0.3,0-0.5-0.2-0.5-0.5v-1.9c0-0.3,0.2-0.5,0.5-0.5s0.5,0.2,0.5,0.5v1.9 C69,40.8,68.8,41.1,68.5,41.1z"/></g><g><path fill="#472b29" d="M64.3,67.9H37.8c-2.6,0-4.7-2.1-4.7-4.7V36.7c0-2.6,2.1-4.7,4.7-4.7h24c0.3,0,0.5,0.2,0.5,0.5S62,33,61.8,33 h-24c-2.1,0-3.7,1.7-3.7,3.7v26.4c0,2.1,1.7,3.7,3.7,3.7h26.4c2.1,0,3.7-1.7,3.7-3.7V49.6c0-0.3,0.2-0.5,0.5-0.5s0.5,0.2,0.5,0.5 v13.6C69,65.8,66.9,67.9,64.3,67.9z"/></g><g><path fill="#fdfcee" d="M53.2,58.3c0,0.9,0.9,1.4,2.9,1.4v1.8H45.9v-1.8c1.9,0,2.8-0.5,2.8-1.4v-9.4c0-0.9-0.9-1.4-2.8-1.4v-1.8h7.3 C53.2,45.8,53.2,58.3,53.2,58.3z M53.6,40.6c0,0.7-0.3,1.3-0.8,1.9c-0.5,0.5-1.2,0.8-2,0.8c-0.4,0-0.8-0.1-1.1-0.2 c-0.3-0.1-0.6-0.3-0.9-0.6c-0.3-0.2-0.5-0.5-0.6-0.8c-0.2-0.3-0.2-0.7-0.2-1c0-0.7,0.3-1.4,0.8-1.9c0.6-0.5,1.2-0.8,2-0.8 c0.8,0,1.4,0.3,2,0.8C53.4,39.2,53.6,39.8,53.6,40.6z"/><path fill="#472b29" d="M56.6,62H45.4v-2.8h0.5c1.1,0,2.3-0.2,2.3-0.9v-9.4c0-0.6-0.8-0.9-2.3-0.9h-0.5v-2.8h8.3l0,13.1 c0,0.2,0,0.3,0.1,0.4c0.2,0.2,0.7,0.5,2.2,0.5h0.5V62z M46.4,61h9.2v-0.8c-1.2-0.1-2-0.3-2.5-0.8c-0.3-0.3-0.4-0.7-0.4-1.1V46.3 h-6.3V47c1.9,0.1,2.8,0.7,2.8,1.9v9.4c0,1.2-1,1.8-2.8,1.9V61z M50.8,43.7c-0.5,0-0.9-0.1-1.3-0.3c-0.4-0.2-0.7-0.4-1-0.7 c-0.3-0.3-0.5-0.6-0.7-1c-0.2-0.4-0.3-0.8-0.3-1.3c0-0.9,0.3-1.6,1-2.2c0.7-0.6,1.4-0.9,2.3-0.9c0.9,0,1.7,0.3,2.3,0.9 c0.7,0.6,1,1.4,1,2.2c0,0.9-0.3,1.6-1,2.2C52.5,43.4,51.8,43.7,50.8,43.7z M50.8,38.4c-0.6,0-1.2,0.2-1.7,0.6 c-0.5,0.4-0.7,0.9-0.7,1.5c0,0.3,0.1,0.6,0.2,0.8c0.1,0.3,0.3,0.5,0.5,0.7c0.2,0.2,0.5,0.4,0.7,0.5c0.3,0.1,0.6,0.2,0.9,0.2 c0.7,0,1.2-0.2,1.6-0.6c0.4-0.4,0.7-0.9,0.7-1.5c0-0.6-0.2-1.1-0.7-1.5C52,38.6,51.5,38.4,50.8,38.4z"/></g><g><path fill="#fdfcef" d="M36.5,73.5c0,0,1.6,0,3.5,0s3.5-1.6,3.5-3.5c0-1.8-1.3-3.2-3.1-3.5c0-0.2,0.1-0.4,0.1-0.5 c0-1.9-1.6-3.5-3.5-3.5c-1,0-2,0.5-2.6,1.2c-0.4-1.8-2-3.2-3.9-3.2c-2.2,0-4,1.8-4,4c0,0.2,0,0.4,0.1,0.6c-0.4-0.3-1-0.6-1.6-0.6 c-1.2,0-2.2,0.9-2.5,2.1c-0.2,0-0.4-0.1-0.5-0.1c-1.9,0-3.5,1.6-3.5,3.5s1.6,3.5,3.5,3.5s7.5,0,7.5,0V74h7V73.5z"/><path fill="#472b29" d="M38.3 69c-.1 0-.3-.1-.3-.3 0-1.2 1-2.2 2.2-2.2 0 0 .7 0 1.2.1.1 0 .2.2.2.3 0 .1-.2.2-.3.2C40.9 67 40.2 67 40.2 67c-.9 0-1.7.8-1.7 1.7C38.5 68.9 38.4 69 38.3 69zM31.5 73A.5.5 0 1 0 31.5 74 .5.5 0 1 0 31.5 73z"/><path fill="#472b29" d="M40,74h-3.5c-0.3,0-0.5-0.2-0.5-0.5s0.2-0.5,0.5-0.5H40c1.7,0,3-1.3,3-3c0-1.5-1.1-2.8-2.6-3 c-0.1,0-0.3-0.1-0.3-0.2s-0.1-0.2-0.1-0.4c0-0.2,0-0.3,0-0.5c0-1.7-1.3-3-3-3c-0.8,0-1.6,0.4-2.2,1c-0.1,0.1-0.3,0.2-0.5,0.1 c-0.2,0-0.3-0.2-0.4-0.4c-0.3-1.6-1.8-2.8-3.4-2.8c-1.9,0-3.5,1.6-3.5,3.5c0,0.1,0,0.3,0,0.4c0,0.2-0.1,0.4-0.2,0.5 s-0.4,0.1-0.6,0C25.9,65.2,25.4,65,25,65c-1,0-1.8,0.7-2,1.6c0,0.3-0.3,0.4-0.6,0.4c-0.2,0-0.3,0-0.5,0c-1.7,0-3,1.3-3,3 s1.3,3,3,3h7.5c0.3,0,0.5,0.2,0.5,0.5S29.8,74,29.5,74H22c-2.2,0-4-1.8-4-4s1.8-4,4-4c0.1,0,0.1,0,0.2,0c0.4-1.2,1.5-2,2.8-2 c0.3,0,0.7,0.1,1,0.2c0.2-2.3,2.1-4.2,4.5-4.2c1.8,0,3.5,1.1,4.2,2.8c0.7-0.5,1.5-0.8,2.3-0.8c2.2,0,4,1.8,4,4c0,0,0,0.1,0,0.1 c1.7,0.4,3,2,3,3.9C44,72.2,42.2,74,40,74z"/><path fill="#472b29" d="M34.5,73c-0.2,0-0.8,0-1,0c-0.3,0-0.5,0.2-0.5,0.5s0.2,0.5,0.5,0.5c0.2,0,0.8,0,1,0c0.3,0,0.5-0.2,0.5-0.5 S34.8,73,34.5,73z"/></g></svg>